<svg width="234" height="151" viewBox="0 0 234 151" fill="none" xmlns="http://www.w3.org/2000/svg">
<g id="Group 1000000900">
<g id="Group">
<path id="Vector" d="M99.7592 83.526L77.4298 105.677C75.4178 102.912 74.2426 99.5123 74.2426 95.85V58.2129L99.7592 83.526Z" fill="#526D00"/>
<path id="Vector_2" d="M105.303 89.0332L129.208 112.747H91.268C88.413 112.747 85.718 112.045 83.3552 110.812L105.309 89.0332H105.303Z" fill="#9FC134"/>
<path id="Vector_3" d="M97.9256 29.8418L138.443 70.0303L117.855 90.4664L74.2426 47.2137V29.8418H97.9256Z" fill="#9FC134"/>
<path id="Vector_4" d="M160.49 29.8418V48.1659L143.993 64.5368L109.02 29.8418H160.49Z" fill="#79AA00"/>
<path id="Vector_5" d="M149.537 70.0372L160.49 59.166V80.9022L149.537 70.0372Z" fill="#526D00"/>
<path id="Vector_6" d="M143.993 75.5374L160.49 91.9021V95.8514C160.49 105.178 152.866 112.741 143.464 112.741H140.302L123.393 95.9673L143.993 75.5312V75.5374Z" fill="#79AA00"/>
<path id="Vector_7" d="M116.668 0C102.762 0 91.4588 11.0299 91.1511 24.7455H98.9962C99.2977 15.3393 107.112 7.77646 116.662 7.77646C126.211 7.77646 134.025 15.3332 134.327 24.7455H142.172C141.864 11.0299 130.561 0 116.655 0H116.668Z" fill="#526D00"/>
</g>
<g id="Group_2">
<path id="Vector_8" d="M0 150.693V131.295H8.24507C9.90024 131.295 11.3893 131.905 12.7614 133.102C14.1335 134.298 14.835 135.885 14.835 137.863C14.835 139.84 14.1643 141.312 12.8168 142.569C11.4693 143.826 9.95561 144.431 8.24507 144.431H4.31943V150.693H0ZM4.31943 140.536H7.99279C8.58349 140.536 9.17418 140.341 9.70334 139.926C10.2387 139.511 10.5155 138.815 10.5155 137.869C10.5155 136.923 10.2325 136.257 9.70334 135.836C9.16803 135.421 8.58349 135.195 7.99279 135.195H4.31943V140.536Z" fill="#1E252B"/>
<path id="Vector_9" d="M18.9636 150.693V131.295H23.2831V146.799H30.9128V150.693H18.9636Z" fill="#1E252B"/>
<path id="Vector_10" d="M33.2941 150.693L41.373 131.295H45.2187L53.2976 150.693H48.6951L47.3784 147.44H39.2133L37.8965 150.693H33.2941ZM40.45 144.016H46.1478L43.3174 136.972L40.4562 144.016H40.45Z" fill="#1E252B"/>
<path id="Vector_11" d="M57.0264 150.693V131.295H60.872L70.2431 143.344V131.295H74.421V150.693H70.8892L61.2104 138.308V150.693H57.0325H57.0264Z" fill="#1E252B"/>
<path id="Vector_12" d="M79.6388 150.693V131.295H92.9909V135.189H83.9582V138.833H92.4002V142.648H83.9582V146.793H93.1878V150.687H79.6388V150.693Z" fill="#1E252B"/>
<path id="Vector_13" d="M101.544 150.693V135.189H96.2397V131.295H111.081V135.189H105.863V150.693H101.544Z" fill="#1E252B"/>
<path id="Vector_14" d="M125.639 150.693V131.295H133.829C135.65 131.295 137.225 131.905 138.511 133.157C139.828 134.384 140.474 135.885 140.474 137.692C140.474 140.17 139.102 142.313 136.997 143.204L141.766 150.687H136.887L132.819 144.229H129.928V150.687H125.633L125.639 150.693ZM129.934 140.451H133.355C135.041 140.451 136.161 139.395 136.161 137.753C136.161 136.276 135.096 135.195 133.718 135.195H129.934V140.457V140.451Z" fill="#1E252B"/>
<path id="Vector_15" d="M145.446 150.693V131.295H158.798V135.189H149.765V138.833H158.207V142.648H149.765V146.793H158.995V150.687H145.446V150.693Z" fill="#1E252B"/>
<path id="Vector_16" d="M162.219 144.822V141.037H172.26V144.822H162.219Z" fill="#1E252B"/>
<path id="Vector_17" d="M176.666 150.693V131.295H184.437C186.006 131.295 187.329 131.771 188.394 132.717C189.489 133.633 190.018 134.829 190.018 136.251C190.018 138.113 189.095 139.59 187.52 140.146C190.018 140.591 191.446 142.483 191.446 144.962C191.446 146.604 190.886 147.995 189.735 149.082C188.615 150.168 187.212 150.693 185.502 150.693H176.666ZM180.899 139.035H183.73C184.966 139.035 185.834 138.174 185.834 136.978C185.834 135.781 184.966 134.976 183.76 134.976H180.899V139.041V139.035ZM180.899 146.994H184.628C186.086 146.994 187.151 145.963 187.151 144.626C187.151 143.289 186.086 142.343 184.597 142.343H180.893V146.988L180.899 146.994Z" fill="#1E252B"/>
<path id="Vector_18" d="M193.778 150.693L201.857 131.295H205.702L213.781 150.693H209.179L207.862 147.44H199.697L198.38 150.693H193.778ZM200.934 144.016H206.631L203.801 136.972L200.94 144.016H200.934Z" fill="#1E252B"/>
<path id="Vector_19" d="M233.274 134.134L230.357 136.667C229.151 135.471 227.607 134.885 225.7 134.885C223.958 134.885 222.5 135.471 221.294 136.637C220.088 137.809 219.497 139.255 219.497 141.007C219.497 142.759 220.088 144.206 221.263 145.378C222.469 146.519 223.928 147.105 225.693 147.105C227.459 147.105 228.838 146.604 229.958 145.603V142.985H224.826V139.2H234V147.05C232.179 149.473 229.09 150.999 225.693 150.999C222.746 150.999 220.279 150.053 218.23 148.161C216.181 146.238 215.172 143.876 215.172 141.007C215.172 138.138 216.181 135.776 218.23 133.853C220.279 131.93 222.746 130.984 225.693 130.984C228.641 130.984 231.219 132.04 233.268 134.128L233.274 134.134Z" fill="#1E252B"/>
</g>
</g>
</svg>
