<svg width="105" height="46" viewBox="0 0 105 46" fill="none" xmlns="http://www.w3.org/2000/svg">
<g id="Group 1000000924">
<g id="Group">
<path id="Vector" d="M10.0964 33.4499L1.26246 42.2839C0.467699 41.1817 0 39.8244 0 38.3657V23.3535L10.0964 33.4499Z" fill="#526D00"/>
<path id="Vector_2" d="M12.291 35.6445L21.7497 45.1032H6.7375C5.60587 45.1032 4.53965 44.8252 3.60425 44.3313L12.291 35.6445Z" fill="#9FC134"/>
<path id="Vector_3" d="M9.37033 12.0371L25.4029 28.0697L17.2558 36.2168L0 18.9676V12.0371H9.37033Z" fill="#9FC134"/>
<path id="Vector_4" d="M34.1257 12.0371V19.3469L27.5975 25.8751L13.7595 12.0371H34.1257Z" fill="#79AA00"/>
<path id="Vector_5" d="M29.7922 28.0693L34.1258 23.7324V32.4028L29.7922 28.0693Z" fill="#526D00"/>
<path id="Vector_6" d="M27.5974 30.2637L34.1256 36.7918V38.3683C34.1256 42.087 31.1101 45.1025 27.3881 45.1025H26.1354L19.447 38.4141L27.5974 30.2637Z" fill="#79AA00"/>
<path id="Vector_7" d="M16.7849 0.134766C11.2837 0.134766 6.80949 4.53375 6.68848 10.0055H9.7923C9.91331 6.2541 13.004 3.23859 16.7816 3.23859C20.5592 3.23859 23.6532 6.2541 23.7709 10.0055H26.8748C26.7537 4.53375 22.2795 0.134766 16.7783 0.134766H16.7849Z" fill="#526D00"/>
</g>
<g id="Group_2">
<path id="Vector_8" d="M40.6636 23.3437V12.0176H45.442C46.4002 12.0176 47.2604 12.3741 48.0584 13.074C48.8532 13.7739 49.262 14.6995 49.262 15.854C49.262 17.0085 48.8728 17.8687 48.0912 18.6013C47.3095 19.334 46.433 19.6905 45.442 19.6905H43.1656V23.347H40.6636V23.3437ZM43.1656 17.4141H45.2948C45.6349 17.4141 45.9783 17.2996 46.2858 17.0576C46.5932 16.8123 46.7567 16.4068 46.7567 15.854C46.7567 15.3013 46.5932 14.9121 46.2858 14.6668C45.9783 14.4215 45.6349 14.2939 45.2948 14.2939H43.1656V17.4141Z" fill="#1E252B"/>
<path id="Vector_9" d="M51.6465 23.3437V12.0176H54.1485V21.0674H58.5671V23.3437H51.6465Z" fill="#1E252B"/>
<path id="Vector_10" d="M59.9473 23.3437L64.6275 12.0176H66.8548L71.5351 23.3437H68.8695L68.1075 21.4435H63.3781L62.6161 23.3437H59.9505H59.9473ZM64.0911 19.4452H67.3912L65.7493 15.334L64.0911 19.4452Z" fill="#1E252B"/>
<path id="Vector_11" d="M73.6936 23.3437V12.0176H75.9209L81.3469 19.0527V12.0176H83.7671V23.3437H81.7197L76.1139 16.1124V23.3437H73.6936Z" fill="#1E252B"/>
<path id="Vector_12" d="M86.7859 23.3437V12.0176H94.5209V14.2939H89.2879V16.4231H94.1775V18.6504H89.2879V21.0707H94.6354V23.347H86.7859V23.3437Z" fill="#1E252B"/>
<path id="Vector_13" d="M99.4759 23.3437V14.2939H96.4048V12.0176H105V14.2939H101.978V23.3437H99.4759Z" fill="#1E252B"/>
<path id="Vector_14" d="M40.6636 42.8398V31.5137H45.4092C46.4657 31.5137 47.3749 31.8702 48.1239 32.6028C48.8859 33.3191 49.262 34.1956 49.262 35.252C49.262 36.6976 48.4673 37.9503 47.2473 38.4703L50.011 42.8398H47.1852L44.8303 39.0688H43.1558V42.8398H40.6701H40.6636ZM43.1492 36.8611H45.1312C46.1059 36.8611 46.7567 36.243 46.7567 35.2847C46.7567 34.4245 46.1386 33.79 45.3438 33.79H43.1492V36.8611Z" fill="#1E252B"/>
<path id="Vector_15" d="M52.1338 42.8398V31.5137H59.8688V33.79H54.6358V35.9192H59.5254V38.1465H54.6358V40.5668H59.9833V42.8431H52.1338V42.8398Z" fill="#1E252B"/>
<path id="Vector_16" d="M61.8474 39.4121V37.2012H67.6658V39.4121H61.8474Z" fill="#1E252B"/>
<path id="Vector_17" d="M70.217 42.8398V31.5137H74.7174C75.6266 31.5137 76.392 31.7884 77.0101 32.3411C77.6446 32.8775 77.9521 33.5774 77.9521 34.4049C77.9521 35.494 77.4157 36.3542 76.5064 36.6813C77.9521 36.9396 78.7828 38.0451 78.7828 39.494C78.7828 40.4523 78.459 41.2667 77.7918 41.8979C77.1409 42.5324 76.3298 42.8398 75.3388 42.8398H70.2203H70.217ZM72.67 36.0304H74.3119C75.0281 36.0304 75.5318 35.5267 75.5318 34.8268C75.5318 34.1269 75.0281 33.6559 74.3282 33.6559H72.67V36.0271V36.0304ZM72.67 40.678H74.8319C75.6757 40.678 76.2939 40.0762 76.2939 39.2977C76.2939 38.5193 75.6757 37.9666 74.8155 37.9666H72.67V40.6812V40.678Z" fill="#1E252B"/>
<path id="Vector_18" d="M80.127 42.8398L84.8072 31.5137H87.0345L91.7148 42.8398H89.0492L88.2872 40.9396H83.5578L82.7925 42.8398H80.127ZM84.2708 38.9413H87.5709L85.929 34.8301L84.2708 38.9413Z" fill="#1E252B"/>
<path id="Vector_19" d="M103.002 33.1714L101.311 34.6498C100.611 33.9498 99.718 33.6097 98.6126 33.6097C97.6052 33.6097 96.7614 33.9498 96.0615 34.6334C95.3616 35.317 95.0214 36.1608 95.0214 37.1845C95.0214 38.2082 95.3616 39.052 96.0451 39.7356C96.745 40.4028 97.5889 40.7429 98.6126 40.7429C99.6363 40.7429 100.431 40.4518 101.082 39.8664V38.339H98.1089V36.1281H103.424V40.7102C102.367 42.1231 100.581 43.016 98.6126 43.016C96.9053 43.016 95.476 42.4633 94.2888 41.3578C93.1016 40.236 92.5161 38.8558 92.5161 37.1812C92.5161 35.5067 93.1016 34.1265 94.2888 33.0046C95.476 31.8828 96.9053 31.3301 98.6126 31.3301C100.32 31.3301 101.814 31.9482 102.998 33.1649L103.002 33.1714Z" fill="#1E252B"/>
</g>
</g>
</svg>
