<svg width="24" height="24" viewBox="0 0 24 24" fill="none" xmlns="http://www.w3.org/2000/svg">
<path d="M5.93526 22.356C7.72322 23.4 9.79917 24 12.0071 24C18.763 24 24.3788 18.0361 23.9828 11.2923C23.5748 4.33245 17.251 -1.03144 9.96715 0.168536C4.95126 0.996517 0.931362 5.06443 0.151379 10.0803C-0.304611 12.9843 0.295402 15.7322 1.60337 18.0001L0.535379 21.972C0.295385 22.872 1.12334 23.688 2.01132 23.436L5.93526 22.356Z" fill="#79AA00"/>
<path d="M18.0071 15.8043C18.0071 16.0203 17.959 16.2483 17.8511 16.4643C17.7431 16.6803 17.6111 16.8843 17.4431 17.0763C17.1431 17.4003 16.8191 17.6403 16.4591 17.7843C16.0991 17.9403 15.7031 18.0123 15.2831 18.0123C14.6711 18.0123 14.0111 17.8683 13.3271 17.5683C12.6311 17.2683 11.9472 16.8723 11.2632 16.3803C10.5672 15.8763 9.91922 15.3123 9.29524 14.7004C8.67125 14.0764 8.11931 13.4164 7.61532 12.7324C7.12333 12.0484 6.72729 11.3644 6.4393 10.6805C6.1513 9.99647 6.00732 9.33649 6.00732 8.7125C6.00732 8.30451 6.07931 7.90852 6.22331 7.54852C6.36731 7.17653 6.59532 6.84054 6.91932 6.54054C7.30331 6.15655 7.72327 5.97656 8.16726 5.97656C8.33526 5.97656 8.50329 6.01256 8.65929 6.08456C8.81529 6.15655 8.95924 6.26455 9.06724 6.42055L10.4472 8.4005C10.5552 8.5565 10.6392 8.6885 10.6872 8.82049C10.7472 8.95249 10.7712 9.07249 10.7712 9.19249C10.7712 9.33649 10.7232 9.48048 10.6392 9.62447C10.5552 9.76847 10.4472 9.91247 10.3032 10.0565L9.84725 10.5365C9.77525 10.6085 9.75123 10.6805 9.75123 10.7765C9.75123 10.8245 9.76326 10.8724 9.77526 10.9204C9.79926 10.9684 9.81123 11.0044 9.82323 11.0404C9.93123 11.2444 10.1233 11.4964 10.3873 11.8084C10.6632 12.1204 10.9512 12.4444 11.2632 12.7564C11.5872 13.0804 11.8992 13.3684 12.2232 13.6444C12.5352 13.9084 12.7992 14.0884 13.0032 14.1964C13.0392 14.2084 13.0751 14.2324 13.1111 14.2444C13.1591 14.2684 13.2071 14.2684 13.2671 14.2684C13.3751 14.2684 13.4472 14.2324 13.5192 14.1604L13.9752 13.7044C14.1312 13.5484 14.2751 13.4404 14.4071 13.3684C14.5511 13.2844 14.6831 13.2364 14.8391 13.2364C14.9591 13.2364 15.0791 13.2604 15.2111 13.3204C15.3431 13.3804 15.4871 13.4524 15.6311 13.5604L17.6231 14.9764C17.7791 15.0844 17.8871 15.2164 17.9591 15.3603C17.9711 15.4923 18.0071 15.6363 18.0071 15.8043Z" fill="white"/>
</svg>
